# xmcd
#
# Track frame offsets: 
#        150
#        13487
#        38785
#        52541
#        69623
#        103246
#        108636
#        128010
#        143068
#        161081
#        190535
#
# Disc length: 2670 seconds
#
# Revision: 0
# Processed by: cddbd v1.5.2PL0 Copyright (c) Steve Scherf et al.
# Submitted via: ExactAudioCopyFreeDBPlugin 1.0
#
DISCID=940a6c0b
DTITLE=Terry Allen - Lubbock (On Everything) [RM 2016 CD 2]
DYEAR=1979
DGENRE=Country
TTITLE0=Cocktails for Three
TTITLE1=The Beautiful Waitress
TTITLE2=High Horse Momma
TTITLE3=Blue Asian Reds (for Roadrunner)
TTITLE4=New Delhi Freight Train
TTITLE5=FFA
TTITLE6=Flatland Farmer
TTITLE7=My Amigo
TTITLE8=The Pink and Black Song
TTITLE9=The Thirty Years War Waltz (for Jo Harvey)
TTITLE10=I Just Left Myself
EXTD=
EXTT0=
EXTT1=
EXTT2=
EXTT3=
EXTT4=
EXTT5=
EXTT6=
EXTT7=
EXTT8=
EXTT9=
EXTT10=
PLAYORDER=
